<svg width="23" height="28" viewBox="0 0 23 28" fill="none" xmlns="http://www.w3.org/2000/svg">
<path d="M18.9108 14.8836C18.9384 12.7231 20.0922 10.6788 21.9224 9.5472C20.7678 7.88882 18.8338 6.83735 16.8218 6.77404C14.6757 6.54751 12.5952 8.0655 11.5016 8.0655C10.3869 8.0655 8.70314 6.79654 6.89002 6.83405C4.5267 6.91084 2.3235 8.26213 1.17369 10.34C-1.29793 14.6436 0.545677 20.9683 2.91329 24.447C4.09785 26.1504 5.48227 28.0532 7.29375 27.9857C9.06639 27.9117 9.72844 26.8489 11.8682 26.8489C13.988 26.8489 14.6092 27.9857 16.4574 27.9428C18.3596 27.9117 19.558 26.2318 20.701 24.5123C21.5521 23.2985 22.207 21.9571 22.6415 20.5376C20.4062 19.5868 18.9134 17.3245 18.9108 14.8836Z" fill="#19191B"/>
<path d="M15.4197 4.48631C16.4569 3.23421 16.9678 1.62485 16.8441 0C15.2596 0.167365 13.796 0.92895 12.7448 2.13301C11.717 3.30943 11.1821 4.89048 11.2832 6.45322C12.8682 6.46964 14.4265 5.7287 15.4197 4.48631Z" fill="#19191B"/>
</svg>
