<svg width="847" height="303" viewBox="0 0 847 303" fill="none" xmlns="http://www.w3.org/2000/svg">
<path d="M1352.5 3.45221L1091.22 486.198C1061.69 541.076 1032.61 579.445 1004.42 601.307C973.103 625.4 932.389 637 882.28 637C791.457 637 746.269 574.984 746.269 451.397V3.45221H909.571V500.475H912.703L1169.96 3.45221H1352.5Z" fill="#1461A6"/>
<path d="M1938.6 231.44C1938.6 330.042 1905.04 419.72 1837.49 500.921C1761.43 591.045 1666.13 636.554 1550.7 636.554C1435.27 636.554 1409.32 615.584 1362.34 573.645C1315.37 531.706 1291.65 473.259 1291.65 398.304C1291.65 323.349 1325.66 210.025 1393.66 128.823C1468.83 38.6989 1563.68 -6.80942 1678.66 -6.80942C1793.64 -6.80942 1820.04 13.7139 1866.12 54.7607C1913.99 97.592 1938.15 156.485 1938.15 231.44H1938.6ZM1756.95 243.933C1756.95 212.255 1748.45 186.824 1731.9 167.639C1715.34 148.454 1690.74 139.085 1658.97 139.085C1604.84 139.085 1559.65 166.747 1522.96 222.517C1490.3 272.487 1473.75 327.365 1473.75 386.704C1473.75 446.043 1482.25 443.366 1498.8 462.551C1515.36 481.736 1539.52 491.106 1571.28 491.106C1625.86 491.106 1671.05 463.444 1707.74 407.674C1740.4 357.257 1756.95 302.38 1756.95 243.487V243.933Z" fill="#1461A6"/>
<path d="M2300.1 -122.365L2098.32 627.185H1923.83L2125.61 -122.365H2300.1Z" fill="#1461A6"/>
<path d="M2688 3.45221L2649.52 144.439H2483.98L2454.01 258.656C2435.66 327.811 2426.27 375.55 2426.27 401.427C2426.27 466.567 2459.38 499.136 2525.15 499.136C2590.91 499.136 2586.89 494.229 2626.26 483.967L2588.68 620.938C2545.73 631.646 2505.01 636.554 2466.54 636.554C2400.32 636.554 2347.08 616.923 2307.26 577.215C2267.44 537.952 2247.76 486.198 2247.76 422.397C2247.76 358.596 2256.7 340.303 2275.05 272.487L2373.03 -91.5799H2547.52L2522.46 2.55997H2688V3.45221Z" fill="#1461A6"/>
<path d="M440.245 167.639C456.799 186.824 465.3 211.809 465.3 243.933C465.3 302.826 448.746 357.704 416.085 408.12C379.846 463.89 334.21 491.552 279.627 491.552C225.044 491.552 224.149 482.182 207.148 462.997C190.594 443.813 182.093 418.381 182.093 387.15C182.093 327.811 198.647 273.379 231.308 222.963C247.862 197.978 265.758 178.347 285.891 164.962C300.208 110.977 317.209 46.7298 330.184 -2.34784C240.703 10.5908 164.644 54.3145 102.008 129.269C34.0026 210.471 0 300.149 0 398.75C0 497.352 23.7123 532.152 70.6897 574.091C117.667 616.03 180.751 637 259.047 637C374.477 637 469.774 591.938 545.832 501.367C612.943 420.166 646.945 330.488 646.945 231.886C646.945 133.285 622.786 98.0382 574.913 55.2068C562.386 44.0528 548.517 34.6835 533.305 26.2064C500.197 71.2686 465.3 118.562 433.534 161.393C435.771 163.624 438.008 165.408 439.798 168.085L440.245 167.639Z" fill="#1461A6"/>
<path d="M536.437 -196.428C538.226 -200.889 627.707 -402.554 627.707 -402.554C627.707 -402.554 416.085 -402.554 370.003 -403C343.159 -300.829 281.864 -70.6105 281.864 -70.6105H307.366C338.237 -70.6105 379.846 -70.6105 382.977 -70.6105C382.977 -69.272 375.819 -43.3946 365.976 -6.36325C354.791 36.022 339.579 93.1305 325.71 144.885C318.104 173.885 310.498 201.547 304.682 223.409C303.787 226.086 303.34 228.763 302.892 231.44C301.997 239.025 305.129 244.379 312.288 247.948C314.525 248.841 316.762 249.733 318.999 249.733C323.025 249.733 327.052 247.948 330.631 243.933C332.421 241.702 334.21 239.471 336 236.794C355.238 210.917 378.951 178.793 404.9 143.993C436.218 102.054 470.221 55.653 502.881 11.4832C583.862 -98.2723 656.341 -196.874 656.341 -196.874H536.884L536.437 -196.428Z" fill="#FFD301"/>
</svg>
