<svg width="20" height="22" viewBox="0 0 20 22" fill="none" xmlns="http://www.w3.org/2000/svg">
<path d="M0.377152 0.941272C0.138255 1.18944 0 1.57582 0 2.0762V19.9244C0 20.4248 0.138255 20.8111 0.377152 21.0593L0.436114 21.1138L10.5145 11.1163V10.8802L0.436114 0.882761L0.377152 0.941272Z" fill="#1D1A1B"/>
<path d="M15.0902 14.4505L11.7344 11.1163V10.8802L15.0942 7.54606L15.1694 7.58944L19.1484 9.8361C20.2839 10.4737 20.2839 11.5229 19.1484 12.1645L15.1694 14.4071L15.0902 14.4505Z" fill="#1D1A1B"/>
<path d="M14.5595 15.0279L11.1245 11.6191L0.987095 21.6801C1.36425 22.0736 1.97928 22.121 2.67869 21.7276L14.5595 15.0279Z" fill="#1D1A1B"/>
<path d="M14.5595 6.96864L2.67869 0.269012C1.97928 -0.120395 1.36425 -0.0729819 0.987095 0.320461L11.1245 10.3775L14.5595 6.96864Z" fill="#1D1A1B"/>
</svg>
