<svg width="1467" height="1023" viewBox="0 0 1467 1023" fill="none" xmlns="http://www.w3.org/2000/svg">
<path d="M1369.15 -401L429.111 -401C416.998 -401 406.073 -393.716 401.416 -382.533L8.29672 561.438C0.0676212 581.198 14.5861 602.971 35.9911 602.971H391.585C410.264 602.971 424.419 619.759 421.121 638.145C373.299 904.691 292.286 1345.31 264.15 1524.08C259.901 1551.07 287.734 1563.53 306.243 1543.43L1453.69 296.808C1471.38 277.581 1457.75 246.491 1431.61 246.491H1131.31C1108.8 246.491 1094.3 222.622 1104.69 202.651L1395.77 -357.16C1406.16 -377.131 1391.66 -401 1369.15 -401Z" stroke="url(#paint0_linear_74_74)" stroke-width="10"/>
<defs>
<linearGradient id="paint0_linear_74_74" x1="630.5" y1="124.5" x2="745.936" y2="869.01" gradientUnits="userSpaceOnUse">
<stop stop-opacity="0"/>
<stop offset="0.509615" stop-color="#FFD301"/>
<stop offset="1" stop-opacity="0"/>
</linearGradient>
</defs>
</svg>
