<svg width="198" height="21" viewBox="0 0 198 21" fill="none" xmlns="http://www.w3.org/2000/svg">
<g opacity="0.7">
<path d="M42.5526 4.62229L41.0852 4.62229L41.0852 20.4151L42.5526 20.4151L42.5526 4.62229Z" fill="#687480"/>
<path d="M8.07031 20.8003C12.5274 20.8003 16.1406 17.0063 16.1406 12.3261C16.1406 7.64594 12.5274 3.85191 8.07031 3.85191C3.6132 3.85191 -3.34215e-07 7.64594 -5.38792e-07 12.3261C-7.43369e-07 17.0063 3.6132 20.8003 8.07031 20.8003Z" fill="#687480"/>
<path d="M61.8259 6.11298C60.7005 5.47199 59.4379 5.1432 58.1576 5.1577C56.8769 5.13888 55.6132 5.46795 54.4893 6.11298C53.4009 6.7474 52.5036 7.68954 51.8994 8.83243C51.2447 10.0939 50.9171 11.5139 50.9493 12.9501C50.9177 14.3857 51.2399 15.8054 51.8848 17.0717C52.4852 18.2038 53.3744 19.1376 54.4526 19.768C55.5746 20.4187 56.8394 20.7494 58.1209 20.7271C59.3979 20.7466 60.6587 20.4259 61.7856 19.795C62.8868 19.164 63.794 18.2167 64.4011 17.064C65.0515 15.8049 65.379 14.3899 65.3512 12.9578C65.3834 11.523 65.0598 10.104 64.4121 8.84013C63.8157 7.69046 62.9183 6.74412 61.8259 6.11298ZM62.6953 16.3282C62.2411 17.1966 61.5586 17.9093 60.7291 18.3813C59.9166 18.8357 59.0085 19.0688 58.0879 19.0593C57.172 19.0696 56.2684 18.8363 55.4614 18.3813C54.641 17.9096 53.9702 17.1958 53.5318 16.3282C53.0171 15.289 52.7645 14.1287 52.7982 12.9578C52.765 11.787 53.0176 10.6268 53.5318 9.5874C53.9729 8.71892 54.6478 8.00616 55.4724 7.53819C56.2875 7.09036 57.1937 6.85644 58.1136 6.85644C59.0335 6.85644 59.9397 7.09036 60.7548 7.53819C61.5874 8.00307 62.2732 8.71244 62.7283 9.5797C63.246 10.6178 63.4988 11.779 63.462 12.9501C63.4958 14.1276 63.2312 15.2933 62.6953 16.3282Z" fill="#687480"/>
<path d="M76.4442 13.1466C75.6361 12.8009 74.8063 12.5139 73.9607 12.2876C73.0999 12.0308 72.4139 11.7945 71.9028 11.5788C71.4174 11.3857 70.9789 11.0818 70.6189 10.689C70.2713 10.2955 70.0866 9.77326 70.1053 9.23688C70.106 8.89728 70.1855 8.56296 70.337 8.26292C70.4885 7.96288 70.7074 7.70618 70.9747 7.51507C71.639 7.02628 72.4388 6.78245 73.2491 6.82173C74.1472 6.76894 75.0332 7.05898 75.7436 7.63834C76.0425 7.90404 76.2851 8.23259 76.4557 8.6028C76.6263 8.97301 76.7211 9.37665 76.734 9.7877L78.5682 9.7877C78.5627 9.13944 78.423 8.50017 78.1589 7.91421C77.8948 7.32824 77.5125 6.80958 77.0385 6.39417C76.0945 5.56986 74.8485 5.1577 73.3005 5.1577C72.3923 5.14094 71.4914 5.33014 70.6592 5.71238C69.9435 6.0344 69.3228 6.55177 68.8618 7.21077C68.4502 7.80798 68.2294 8.52669 68.2308 9.26384C68.1882 10.107 68.4355 10.9382 68.9278 11.6058C69.388 12.1817 69.973 12.6334 70.6336 12.9232C71.4848 13.2828 72.3587 13.5801 73.2491 13.8129C73.9104 13.9817 74.562 14.1901 75.2006 14.437C75.6493 14.6011 76.0594 14.8638 76.4038 15.2073C76.5612 15.3749 76.6843 15.5744 76.7656 15.7936C76.847 16.0128 76.8849 16.2472 76.8771 16.4823C76.8808 16.8405 76.8052 17.1946 76.6562 17.5168C76.5072 17.839 76.289 18.1205 76.0187 18.3389C75.3408 18.8751 74.5036 19.1413 73.6563 19.0901C72.6902 19.1482 71.7319 18.878 70.9234 18.3197C70.6008 18.0824 70.3308 17.7747 70.132 17.4177C69.9332 17.0607 69.8102 16.6628 69.7715 16.2512L67.8713 16.2512C67.9136 16.9015 68.0932 17.5337 68.3972 18.102C68.7011 18.6703 69.1217 19.1605 69.6285 19.5369C70.6752 20.3432 72.0202 20.7464 73.6636 20.7464C74.5718 20.7647 75.4726 20.5713 76.3011 20.1802C77.0099 19.8543 77.6211 19.3324 78.0693 18.6702C78.4932 18.0328 78.7153 17.2713 78.7039 16.4939C78.7233 15.7185 78.4802 14.961 78.0179 14.3561C77.5883 13.8318 77.05 13.4181 76.4442 13.1466Z" fill="#687480"/>
<path d="M84.0486 -4.98097e-06L82.1998 -4.98015e-06L82.1998 20.523L84.0486 20.523L84.0486 -4.98097e-06Z" fill="#687480"/>
<path d="M98.3111 6.11298C97.1769 5.46688 95.9036 5.13792 94.6134 5.1577C93.3327 5.13888 92.069 5.46795 90.9451 6.11298C89.8567 6.7474 88.9594 7.68954 88.3552 8.83243C87.7005 10.0939 87.3729 11.5139 87.4052 12.9501C87.3735 14.3857 87.6957 15.8054 88.3406 17.0717C88.941 18.2038 89.8302 19.1376 90.9084 19.768C92.0304 20.4187 93.2952 20.7494 94.5767 20.7271C95.8599 20.7502 97.1275 20.4293 98.2597 19.795C99.3633 19.1625 100.272 18.2124 100.879 17.0563C101.531 15.7979 101.859 14.3824 101.829 12.9501C101.858 11.5143 101.53 10.0952 100.879 8.83243C100.286 7.68825 99.3956 6.74496 98.3111 6.11298ZM99.1695 16.3282C98.7161 17.1926 98.0363 17.9025 97.2106 18.3736C96.398 18.828 95.4899 19.0611 94.5694 19.0515C93.6534 19.0618 92.7499 18.8286 91.9429 18.3736C91.1208 17.9051 90.4475 17.1941 90.006 16.3282C89.4913 15.289 89.2387 14.1287 89.2723 12.9578C89.2392 11.787 89.4917 10.6268 90.006 9.5874C90.447 8.71892 91.1219 8.00616 91.9465 7.53819C92.7616 7.09036 93.6678 6.85644 94.5877 6.85644C95.5076 6.85644 96.4138 7.09036 97.2289 7.53819C98.0566 8.00705 98.7361 8.71919 99.1841 9.5874C99.7018 10.6255 99.9546 11.7867 99.9178 12.9578C99.9559 14.1309 99.6977 15.2938 99.1695 16.3282Z" fill="#687480"/>
<path d="M115.244 13.7552C115.244 15.1226 114.914 16.1742 114.254 16.9022C113.905 17.2731 113.487 17.5627 113.025 17.7519C112.562 17.941 112.067 18.0256 111.572 18C111.079 18.0268 110.586 17.9428 110.126 17.7535C109.666 17.5642 109.25 17.2739 108.905 16.9022C108.252 16.1742 107.926 15.1226 107.926 13.7552L107.926 5.24245L104.943 5.24245L104.943 14.229C104.908 15.462 105.176 16.6839 105.721 17.7766C106.204 18.7219 106.945 19.4944 107.849 19.9953C108.8 20.5072 109.857 20.7652 110.926 20.7464C111.768 20.7509 112.602 20.5657 113.37 20.2033C114.096 19.8753 114.736 19.3662 115.233 18.7203L115.233 20.523L118.241 20.523L118.241 5.24245L115.233 5.24245L115.244 13.7552Z" fill="#687480"/>
<path d="M133.149 5.24245L130.005 5.24245L127.049 10.4271L123.905 5.24245L120.497 5.24245L125.2 13.0079L120.497 20.523L123.641 20.523L126.601 15.3383L129.741 20.523L133.149 20.523L128.446 12.7845L133.149 5.24245Z" fill="#687480"/>
<path d="M34.4822 8.54531L30.2037 3.98228L30.0796 3.85191L26.4119 7.76308L22.7443 3.85191L18.4633 8.41494L18.3416 8.54531L22.0093 12.4565L18.585 16.1069L22.9876 20.8003L26.4119 17.1499L29.8362 20.8003L34.2364 16.1069L30.8146 12.4565L34.4822 8.54531Z" fill="#687480"/>
<path d="M157.369 10.4834C157.056 10.7995 156.561 10.7995 156.248 10.4834C155.936 10.1672 155.936 9.66799 156.248 9.35182C156.561 9.03566 157.056 9.03566 157.369 9.35182C157.682 9.66799 157.682 10.1672 157.369 10.4834ZM157.352 20.8003L156.265 20.8003L156.265 12.4802L157.352 12.4802L157.352 20.8003Z" fill="#687480"/>
<path d="M163.514 12.2805C165.507 12.2805 166.742 13.6117 166.742 15.6918L166.742 20.8003L165.655 20.8003L165.655 15.6918C165.655 14.2108 164.848 13.3455 163.415 13.3455C161.833 13.3455 160.746 14.3273 160.746 16.4406L160.746 20.8003L159.659 20.8003L159.659 12.4802L160.746 12.4802L160.746 13.7781C161.356 12.7797 162.278 12.2805 163.514 12.2805Z" fill="#687480"/>
<path d="M169.701 14.6601C169.701 15.4089 170.458 15.8249 171.397 16.0745C172.781 16.4239 174.511 16.8067 174.511 18.6038C174.511 19.3193 174.231 19.8851 173.671 20.3344C173.127 20.7837 172.402 21 171.529 21C169.948 21 168.795 20.2179 168.35 19.0864L169.272 18.5372C169.585 19.4025 170.426 19.935 171.529 19.935C172.6 19.935 173.423 19.519 173.423 18.6038C173.423 17.855 172.666 17.439 171.727 17.1894C170.343 16.8399 168.614 16.4572 168.614 14.6601C168.614 13.9778 168.877 13.412 169.404 12.9628C169.948 12.5135 170.623 12.2805 171.43 12.2805C172.765 12.2805 173.835 12.9295 174.313 13.9778L173.407 14.5103C173.094 13.7282 172.435 13.3455 171.43 13.3455C170.491 13.3455 169.701 13.8114 169.701 14.6601Z" fill="#687480"/>
<path d="M177.347 10.4834C177.034 10.7995 176.54 10.7995 176.227 10.4834C175.914 10.1672 175.914 9.66799 176.227 9.35182C176.54 9.03566 177.034 9.03566 177.347 9.35182C177.66 9.66799 177.66 10.1672 177.347 10.4834ZM177.331 20.8003L176.244 20.8003L176.244 12.4802L177.331 12.4802L177.331 20.8003Z" fill="#687480"/>
<path d="M186.721 14.1109L186.721 9.15214L187.808 9.15214L187.808 20.8003L186.721 20.8003L186.721 19.1696C185.963 20.3843 184.86 21 183.394 21C182.224 21 181.219 20.584 180.379 19.7353C179.556 18.8867 179.144 17.855 179.144 16.6403C179.144 15.4255 179.556 14.3938 180.379 13.5452C181.219 12.6965 182.224 12.2805 183.394 12.2805C184.86 12.2805 185.963 12.8962 186.721 14.1109ZM181.17 18.9865C181.796 19.6189 182.57 19.935 183.476 19.935C184.382 19.935 185.156 19.6189 185.782 18.9865C186.408 18.3376 186.721 17.5555 186.721 16.6403C186.721 15.725 186.408 14.9429 185.782 14.3106C185.156 13.6616 184.382 13.3455 183.476 13.3455C182.57 13.3455 181.796 13.6616 181.17 14.3106C180.544 14.9429 180.231 15.725 180.231 16.6403C180.231 17.5555 180.544 18.3376 181.17 18.9865Z" fill="#687480"/>
<path d="M193.915 12.2805C195.134 12.2805 196.122 12.7132 196.863 13.5951C197.621 14.4604 198 15.4921 198 16.6735C198 16.79 197.984 16.9731 197.967 17.1894L190.736 17.1894C190.95 18.87 192.251 19.935 194.014 19.935C195.266 19.935 196.205 19.3693 196.666 18.5206L197.621 19.0864C196.896 20.2678 195.595 21 193.997 21C192.696 21 191.642 20.584 190.835 19.7686C190.028 18.9532 189.616 17.9049 189.616 16.6403C189.616 15.3922 190.011 14.3605 190.818 13.5285C191.625 12.6965 192.647 12.2805 193.915 12.2805ZM193.915 13.3455C192.202 13.3455 190.95 14.477 190.736 16.1244L196.88 16.1244C196.765 15.2425 196.435 14.5602 195.875 14.0777C195.315 13.5951 194.656 13.3455 193.915 13.3455Z" fill="#687480"/>
</g>
</svg>
