<svg width="173" height="67" viewBox="0 0 173 67" fill="none" xmlns="http://www.w3.org/2000/svg">
<path d="M87.0475 26.1849L70.2312 57.2848C68.3307 60.8202 66.4591 63.2921 64.645 64.7005C62.6293 66.2527 60.009 67 56.784 67C50.9386 67 48.0303 63.0047 48.0303 55.0429V26.1849H58.5404V58.2046H58.742L75.2991 26.1849H87.0475Z" fill="white"/>
<path d="M124.768 40.8726C124.768 47.2248 122.609 53.0021 118.261 58.2334C113.366 64.0395 107.232 66.9712 99.8031 66.9712C92.374 66.9712 90.7039 65.6203 87.6805 62.9185C84.657 60.2166 83.1309 56.4513 83.1309 51.6225C83.1309 46.7936 85.3193 39.4929 89.6961 34.2617C94.5337 28.4556 100.638 25.5238 108.039 25.5238C115.439 25.5238 117.138 26.846 120.104 29.4903C123.185 32.2497 124.74 36.0438 124.74 40.8726H124.768ZM113.078 41.6774C113.078 39.6366 112.531 37.9983 111.465 36.7623C110.4 35.5264 108.816 34.9228 106.772 34.9228C103.287 34.9228 100.379 36.7048 98.0179 40.2977C95.9158 43.5169 94.8504 47.0523 94.8504 50.8751C94.8504 54.698 95.3975 54.5255 96.4629 55.7615C97.5283 56.9974 99.0833 57.601 101.128 57.601C104.641 57.601 107.549 55.819 109.91 52.2261C112.012 48.9781 113.078 45.4427 113.078 41.6486V41.6774Z" fill="white"/>
<path d="M148.035 18.0793L135.048 66.3676H123.818L136.805 18.0793H148.035Z" fill="white"/>
<path d="M173 26.1849L170.524 35.2677H159.87L157.94 42.6259C156.76 47.0811 156.155 50.1566 156.155 51.8237C156.155 56.0201 158.286 58.1184 162.519 58.1184C166.752 58.1184 166.493 57.8022 169.027 57.1411L166.608 65.9652C163.843 66.6551 161.223 66.9712 158.747 66.9712C154.485 66.9712 151.058 65.7066 148.496 63.1484C145.933 60.619 144.666 57.2848 144.666 53.1746C144.666 49.0643 145.242 47.8859 146.423 43.5169L152.729 20.0626H163.959L162.346 26.1274H173V26.1849Z" fill="white"/>
<path d="M28.3342 36.7623C29.3997 37.9983 29.9468 39.6079 29.9468 41.6774C29.9468 45.4714 28.8814 49.0068 26.7793 52.2548C24.4469 55.8477 21.5098 57.6297 17.9969 57.6297C14.4839 57.6297 14.4263 57.0261 13.3321 55.7902C12.2667 54.5542 11.7196 52.9159 11.7196 50.9039C11.7196 47.0811 12.785 43.5744 14.887 40.3264C15.9524 38.7168 17.1042 37.4521 18.4 36.5899C19.3214 33.1119 20.4156 28.973 21.2507 25.8112C15.4917 26.6448 10.5965 29.4616 6.56525 34.2904C2.18841 39.5216 0 45.299 0 51.6512C0 58.0034 1.52613 60.2454 4.5496 62.9472C7.57307 65.6491 11.6332 67 16.6723 67C24.1014 67 30.2347 64.0969 35.1299 58.2621C39.4491 53.0309 41.6375 47.2535 41.6375 40.9013C41.6375 34.5491 40.0826 32.2784 37.0015 29.5191C36.1953 28.8005 35.3026 28.1969 34.3236 27.6508C32.1928 30.5538 29.9468 33.6006 27.9023 36.3599C28.0463 36.5036 28.1903 36.6186 28.3055 36.791L28.3342 36.7623Z" fill="white"/>
<path d="M34.525 13.308C34.6401 13.0206 40.3991 0.0287448 40.3991 0.0287448C40.3991 0.0287448 26.7791 0.028743 23.8132 0C22.0855 6.58215 18.1406 21.4136 18.1406 21.4136H19.7819C21.7688 21.4136 24.4467 21.4136 24.6483 21.4136C24.6483 21.4998 24.1876 23.1669 23.5541 25.5526C22.8342 28.2831 21.8552 31.9623 20.9625 35.2964C20.473 37.1647 19.9835 38.9468 19.6092 40.3552C19.5516 40.5277 19.5228 40.7001 19.494 40.8726C19.4364 41.3612 19.638 41.7061 20.0987 41.9361C20.2427 41.9936 20.3866 42.0511 20.5306 42.0511C20.7898 42.0511 21.0489 41.9361 21.2793 41.6774C21.3945 41.5337 21.5096 41.39 21.6248 41.2175C22.863 39.5504 24.3891 37.4809 26.0592 35.239C28.0749 32.5371 30.2633 29.5478 32.3653 26.7023C37.5772 19.6315 42.242 13.2793 42.242 13.2793H34.5538L34.525 13.308Z" fill="#FFD301"/>
</svg>
