<svg width="230" height="89" viewBox="0 0 230 89" fill="none" xmlns="http://www.w3.org/2000/svg">
<path d="M115.727 34.7829L93.3706 76.0948C90.844 80.7911 88.3556 84.0746 85.9438 85.9455C83.2641 88.0073 79.7804 89 75.4928 89C67.7215 89 63.8549 83.6928 63.8549 73.1167V34.7829H77.828V77.3166H78.096L100.108 34.7829H115.727Z" fill="#00529B"/>
<path d="M165.877 54.2934C165.877 62.7314 163.006 70.4058 157.226 77.3548C150.718 85.0674 142.563 88.9618 132.687 88.9618C122.81 88.9618 120.589 87.1673 116.57 83.5783C112.55 79.9893 110.521 74.9876 110.521 68.5731C110.521 62.1587 113.431 52.4608 119.249 45.5118C125.681 37.7992 133.797 33.9048 143.635 33.9048C153.474 33.9048 155.733 35.6611 159.676 39.1737C163.772 42.8391 165.839 47.879 165.839 54.2934H165.877ZM150.335 55.3625C150.335 52.6516 149.607 50.4753 148.191 48.8336C146.774 47.1918 144.669 46.39 141.951 46.39C137.319 46.39 133.452 48.7572 130.313 53.5298C127.518 57.8061 126.102 62.5024 126.102 67.5804C126.102 72.6585 126.829 72.4294 128.246 74.0712C129.662 75.713 131.729 76.5148 134.448 76.5148C139.118 76.5148 142.985 74.1476 146.124 69.3749C148.918 65.0605 150.335 60.3642 150.335 55.3243V55.3625Z" fill="#00529B"/>
<path d="M196.809 24.0159L179.544 88.16H164.614L181.879 24.0159H196.809Z" fill="#00529B"/>
<path d="M230 34.7829L226.708 46.8481H212.544L209.979 56.6225C208.409 62.5405 207.605 66.6259 207.605 68.8404C207.605 74.4148 210.438 77.2021 216.065 77.2021C221.693 77.2021 221.348 76.7821 224.717 75.9039L221.502 87.6255C217.826 88.5418 214.343 88.9618 211.05 88.9618C205.385 88.9618 200.829 87.2819 197.422 83.8837C194.015 80.5238 192.33 76.0948 192.33 70.6349C192.33 65.175 193.096 63.6096 194.666 57.8061L203.049 26.6504H217.98L215.836 34.7066H230V34.7829Z" fill="#00529B"/>
<path d="M37.6698 48.8336C39.0863 50.4753 39.8136 52.6135 39.8136 55.3625C39.8136 60.4024 38.3972 65.0987 35.6026 69.4131C32.5017 74.1858 28.5969 76.553 23.9265 76.553C19.256 76.553 19.1794 75.7512 17.7247 74.1094C16.3083 72.4676 15.5809 70.2913 15.5809 67.6186C15.5809 62.5405 16.9974 57.8825 19.792 53.568C21.2084 51.4299 22.7397 49.7499 24.4624 48.6045C25.6874 43.9846 27.1422 38.4865 28.2524 34.2866C20.5959 35.3938 14.0879 39.1356 8.72837 45.55C2.90945 52.4989 0 60.1733 0 68.6113C0 77.0493 2.02896 80.0275 6.0486 83.6165C10.0682 87.2055 15.4661 89 22.1655 89C32.0423 89 40.1964 85.1437 46.7044 77.393C52.4468 70.444 55.3562 62.7696 55.3562 54.3316C55.3562 45.8936 53.289 42.8773 49.1928 39.2119C48.1209 38.2574 46.9341 37.4556 45.6325 36.7302C42.7996 40.5864 39.8136 44.6336 37.0956 48.299C37.287 48.4899 37.4784 48.6426 37.6315 48.8717L37.6698 48.8336Z" fill="#00529B"/>
<path d="M45.9005 17.6778C46.0536 17.296 53.7101 0.0381834 53.7101 0.0381834C53.7101 0.0381834 35.6026 0.038181 31.6595 0C29.3626 8.74346 24.1179 28.4449 24.1179 28.4449H26.3C28.9414 28.4449 32.5017 28.4449 32.7697 28.4449C32.7697 28.5594 32.1572 30.7739 31.3149 33.943C30.3579 37.5701 29.0563 42.4573 27.8695 46.8863C27.2187 49.3681 26.5679 51.7353 26.0703 53.6062C25.9937 53.8353 25.9554 54.0644 25.9171 54.2934C25.8406 54.9425 26.1085 55.4007 26.7211 55.7061C26.9125 55.7825 27.1039 55.8589 27.2953 55.8589C27.6398 55.8589 27.9844 55.7061 28.2906 55.3625C28.4438 55.1716 28.5969 54.9807 28.75 54.7516C30.3962 52.5371 32.4251 49.7881 34.6455 46.81C37.3253 43.2209 40.2347 39.2501 43.0293 35.4702C49.9584 26.0777 56.1602 17.6396 56.1602 17.6396H45.9388L45.9005 17.6778Z" fill="#FFD301"/>
</svg>
