<svg width="642" height="249" viewBox="0 0 642 249" fill="none" xmlns="http://www.w3.org/2000/svg">
<path d="M323.03 97.314L260.626 212.894C253.573 226.033 246.627 235.22 239.895 240.454C232.415 246.223 222.691 249 210.723 249C189.031 249 178.238 234.152 178.238 204.562V97.314H217.241V216.313H217.989L279.432 97.314H323.03Z" fill="white"/>
<path d="M463.014 151.9C463.014 175.507 455 196.978 438.864 216.42C420.699 237.997 397.938 248.893 370.369 248.893C342.799 248.893 336.602 243.873 325.382 233.831C314.161 223.79 308.498 209.797 308.498 191.851C308.498 173.905 316.619 146.772 332.862 127.331C350.814 105.753 373.467 94.8572 400.93 94.8572C428.392 94.8572 434.697 99.7709 445.703 109.598C457.137 119.853 462.907 133.954 462.907 151.9H463.014ZM419.63 154.891C419.63 147.306 417.6 141.218 413.646 136.624C409.692 132.031 403.815 129.788 396.228 129.788C383.298 129.788 372.506 136.411 363.743 149.763C355.943 161.727 351.989 174.866 351.989 189.073C351.989 203.281 354.019 202.64 357.973 207.233C361.927 211.826 367.697 214.07 375.284 214.07C388.321 214.07 399.113 207.447 407.876 194.094C415.676 182.023 419.63 168.884 419.63 154.784V154.891Z" fill="white"/>
<path d="M549.355 67.1905L501.163 246.65H459.488L507.681 67.1905H549.355Z" fill="white"/>
<path d="M641.999 97.314L632.81 131.07H593.272L586.113 158.416C581.732 174.973 579.488 186.403 579.488 192.598C579.488 208.194 587.395 215.992 603.103 215.992C618.811 215.992 617.85 214.817 627.253 212.36L618.277 245.154C608.019 247.718 598.295 248.893 589.105 248.893C573.29 248.893 560.574 244.193 551.064 234.686C541.553 225.286 536.852 212.894 536.852 197.619C536.852 182.344 538.989 177.964 543.37 161.727L566.772 74.5612H608.446L602.462 97.1004H641.999V97.314Z" fill="white"/>
<path d="M105.148 136.624C109.102 141.218 111.132 147.199 111.132 154.891C111.132 168.991 107.178 182.13 99.3776 194.201C90.7221 207.553 79.8227 214.176 66.786 214.176C53.7494 214.176 53.5357 211.933 49.4751 207.34C45.5213 202.746 43.4911 196.658 43.4911 189.18C43.4911 174.973 47.4448 161.941 55.2454 149.87C59.1991 143.888 63.4734 139.188 68.282 135.983C71.7015 123.058 75.762 107.676 78.8609 95.9254C57.4894 99.0232 39.3236 109.492 24.3635 127.438C8.12117 146.879 0 168.35 0 191.958C0 215.565 5.66344 223.897 16.8835 233.938C28.1035 243.979 43.1705 249 61.8706 249C89.4398 249 112.201 238.211 130.366 216.526C146.395 197.085 154.516 175.614 154.516 152.006C154.516 128.399 148.746 119.96 137.312 109.705C134.32 107.035 131.007 104.791 127.374 102.762C119.467 113.551 111.132 124.874 103.545 135.129C104.079 135.663 104.614 136.09 105.041 136.731L105.148 136.624Z" fill="white"/>
<path d="M128.122 49.4582C128.55 48.39 149.921 0.106828 149.921 0.106828C149.921 0.106828 99.3776 0.106821 88.3713 0C81.9598 24.462 67.3203 79.5817 67.3203 79.5817H73.4112C80.7844 79.5817 90.7221 79.5817 91.4701 79.5817C91.4701 79.9022 89.7604 86.0978 87.4095 94.964C84.7381 105.112 81.1049 118.785 77.7923 131.176C75.9758 138.12 74.1592 144.743 72.7701 149.977C72.5563 150.618 72.4495 151.259 72.3426 151.9C72.1289 153.716 72.8769 154.997 74.5866 155.852C75.1209 156.066 75.6552 156.279 76.1895 156.279C77.1512 156.279 78.1129 155.852 78.9678 154.891C79.3952 154.357 79.8227 153.822 80.2501 153.181C84.845 146.986 90.5084 139.295 96.7062 130.963C104.186 120.922 112.307 109.812 120.108 99.2368C139.449 72.9588 156.76 49.3514 156.76 49.3514H128.229L128.122 49.4582Z" fill="#FFD301"/>
</svg>
