<svg width="28" height="33" viewBox="0 0 28 33" fill="none" xmlns="http://www.w3.org/2000/svg">
<path d="M23.8971 4.10566C21.254 1.45664 17.7363 0 14 0C10.2637 0 6.74598 1.45664 4.10289 4.11211C1.45981 6.76113 0 10.2867 0 14.0314C0 17.7762 1.45338 21.3018 4.10289 23.9508L12.5145 32.3812C12.926 32.7938 13.4598 33 14 33C14.5402 33 15.074 32.7938 15.4855 32.3812L23.8971 23.9508C26.5402 21.3018 28 17.7762 28 14.0314C28 10.2867 26.5466 6.76113 23.8971 4.11211V4.10566ZM17.4084 21.5789C16.0386 23.216 14.3215 24.0346 12.2379 24.0346C10.1543 24.0346 9.69132 23.6543 8.84244 22.8938C7.99357 22.1332 7.56913 21.5016 7.56913 19.7162C7.56913 17.9309 8.18006 16.3066 9.40836 14.8371C10.5402 13.4771 11.91 12.6908 13.5177 12.4523C13.2862 13.3418 12.9775 14.502 12.7203 15.4816C12.3601 15.7266 12.0322 16.0811 11.7363 16.5322C11.1447 17.4475 10.8489 18.4336 10.8489 19.5035C10.8489 20.5734 11.0032 20.5283 11.299 20.8764C11.6077 21.2244 11.6206 21.392 12.6045 21.392C13.5884 21.392 14.4116 20.8893 15.0611 19.8838C15.6527 18.9686 15.9486 17.976 15.9486 16.9125C15.9486 15.849 15.7942 15.8813 15.4984 15.5332H15.492C15.4598 15.4945 15.4212 15.4623 15.3762 15.4172C15.9486 14.6438 16.5788 13.7865 17.1768 12.968C17.4534 13.1227 17.6978 13.2902 17.9293 13.49C18.791 14.2635 19.2283 14.9016 19.2283 16.6869C19.2283 18.4723 18.6174 20.0965 17.4084 21.566V21.5789Z" fill="#00529B"/>
<path d="M17.2412 8.93965C17.2733 8.85586 18.8875 5.20781 18.8875 5.20781C18.8875 5.20781 15.074 5.20781 14.2444 5.20137C13.7621 7.05117 12.6559 11.2213 12.6559 11.2213H14.4759C14.4759 11.2471 14.3473 11.7111 14.1672 12.3879C13.9678 13.1549 13.6913 14.1926 13.4405 15.1271C13.3055 15.6492 13.164 16.152 13.0611 16.5516C13.0418 16.6031 13.0354 16.6482 13.0289 16.6998C13.0096 16.8352 13.0675 16.9318 13.1961 16.9963C13.2347 17.0156 13.2797 17.0285 13.3183 17.0285C13.3891 17.0285 13.4662 16.9963 13.5305 16.9254C13.5627 16.8867 13.5949 16.8416 13.627 16.7965C13.9743 16.326 14.3987 15.7459 14.8682 15.1143C15.4341 14.3537 16.045 13.5158 16.6367 12.7166C18.0965 10.7314 19.4019 8.94609 19.4019 8.94609H17.2412V8.93965Z" fill="#FFD301"/>
</svg>
