<svg width="109" height="128" viewBox="0 0 109 128" fill="none" xmlns="http://www.w3.org/2000/svg">
<path d="M93.028 15.925C82.7389 5.65 69.045 0 54.5 0C39.955 0 26.2611 5.65 15.972 15.95C5.68282 26.225 0 39.9 0 54.425C0 68.95 5.65778 82.625 15.972 92.9L48.717 125.6C50.3192 127.2 52.3971 128 54.5 128C56.6029 128 58.6807 127.2 60.283 125.6L93.028 92.9C103.317 82.625 109 68.95 109 54.425C109 39.9 103.342 26.225 93.028 15.95V15.925ZM67.7683 83.7C62.4359 90.05 55.7517 93.225 47.6406 93.225C39.5294 93.225 37.7269 91.75 34.4224 88.8C31.1178 85.85 29.4655 83.4 29.4655 76.475C29.4655 69.55 31.8438 63.25 36.6254 57.55C41.0315 52.275 46.3638 49.225 52.6224 48.3C51.7212 51.75 50.5195 56.25 49.5181 60.05C48.1162 61 46.8395 62.375 45.6879 64.125C43.3847 67.675 42.2331 71.5 42.2331 75.65C42.2331 79.8 42.8339 79.625 43.9855 80.975C45.1872 82.325 45.2372 82.975 49.0675 82.975C52.8978 82.975 56.1022 81.025 58.6307 77.125C60.9338 73.575 62.0854 69.725 62.0854 65.6C62.0854 61.475 61.4846 61.6 60.333 60.25H60.308C60.1828 60.1 60.0326 59.975 59.8574 59.8C62.0854 56.8 64.5388 53.475 66.867 50.3C67.9435 50.9 68.8948 51.55 69.796 52.325C73.1507 55.325 74.853 57.8 74.853 64.725C74.853 71.65 72.4747 77.95 67.7683 83.65V83.7Z" fill="#00529B"/>
<path d="M67.1174 34.675C67.2425 34.35 73.5262 20.2 73.5262 20.2C73.5262 20.2 58.6807 20.2 55.4513 20.175C53.5737 27.35 49.2678 43.525 49.2678 43.525H56.3525C56.3525 43.625 55.8519 45.425 55.1509 48.05C54.3748 51.025 53.2983 55.05 52.322 58.675C51.7963 60.7 51.2455 62.65 50.845 64.2C50.7699 64.4 50.7448 64.575 50.7198 64.775C50.6447 65.3 50.87 65.675 51.3707 65.925C51.5209 66 51.6961 66.05 51.8463 66.05C52.1217 66.05 52.4221 65.925 52.6725 65.65C52.7976 65.5 52.9228 65.325 53.048 65.15C54.3999 63.325 56.0521 61.075 57.8796 58.625C60.0827 55.675 62.461 52.425 64.7641 49.325C70.4469 41.625 75.5289 34.7 75.5289 34.7H67.1174V34.675Z" fill="#FFD301"/>
</svg>
