<svg width="47" height="55" viewBox="0 0 47 55" fill="none" xmlns="http://www.w3.org/2000/svg">
<path d="M39.822 7.33059C35.5052 3.01982 29.7601 0.649414 23.6579 0.649414C17.5557 0.649414 11.8106 3.01982 7.49386 7.34108C3.17714 11.6519 0.792969 17.3891 0.792969 23.4829C0.792969 29.5767 3.16664 35.3139 7.49386 39.6247L21.2317 53.3437C21.9039 54.0149 22.7757 54.3506 23.6579 54.3506C24.5402 54.3506 25.4119 54.0149 26.0841 53.3437L39.822 39.6247C44.1387 35.3139 46.5229 29.5767 46.5229 23.4829C46.5229 17.3891 44.1492 11.6519 39.822 7.34108V7.33059ZM29.2245 35.7649C26.9874 38.429 24.1831 39.7611 20.7801 39.7611C17.3771 39.7611 16.6209 39.1422 15.2345 37.9046C13.8481 36.6669 13.155 35.6391 13.155 32.7338C13.155 29.8284 14.1527 27.1853 16.1588 24.794C18.0073 22.5809 20.2444 21.3013 22.8702 20.9132C22.4921 22.3606 21.9879 24.2486 21.5678 25.8428C20.9797 26.2414 20.444 26.8182 19.9609 27.5524C18.9946 29.0418 18.5115 30.6465 18.5115 32.3876C18.5115 34.1287 18.7635 34.0553 19.2467 34.6217C19.7508 35.1881 19.7718 35.4608 21.3788 35.4608C22.9857 35.4608 24.3301 34.6427 25.3909 33.0065C26.3572 31.5171 26.8403 29.9019 26.8403 28.1713C26.8403 26.4406 26.5882 26.4931 26.1051 25.9267H26.0946C26.0421 25.8638 25.9791 25.8113 25.9055 25.7379C26.8403 24.4793 27.8696 23.0843 28.8464 21.7523C29.298 22.004 29.6971 22.2767 30.0752 22.6019C31.4826 23.8605 32.1968 24.8988 32.1968 27.8042C32.1968 30.7095 31.199 33.3526 29.2245 35.744V35.7649Z" fill="white"/>
<path d="M28.9514 15.197C29.0039 15.0606 31.6402 9.12413 31.6402 9.12413C31.6402 9.12413 25.4119 9.12413 24.057 9.11364C23.2693 12.1238 21.4628 18.9099 21.4628 18.9099H24.4351C24.4351 18.9519 24.2251 19.707 23.931 20.8083C23.6054 22.0565 23.1538 23.7451 22.7442 25.2659C22.5236 26.1155 22.2925 26.9336 22.1245 27.5839C22.093 27.6678 22.0825 27.7412 22.072 27.8251C22.0405 28.0454 22.135 28.2027 22.345 28.3076C22.4081 28.3391 22.4816 28.36 22.5446 28.36C22.6601 28.36 22.7862 28.3076 22.8912 28.1922C22.9437 28.1293 22.9962 28.0559 23.0487 27.9825C23.6159 27.2168 24.3091 26.2728 25.0758 25.245C26.0001 24.0073 26.9979 22.6438 27.9641 21.3432C30.3483 18.1128 32.4804 15.2075 32.4804 15.2075H28.9514V15.197Z" fill="#FFD301"/>
</svg>
